<?xml version="1.0" encoding="UTF-8"?>
<!DOCTYPE svg PUBLIC "-//W3C//DTD SVG 1.1//EN" "http://www.w3.org/Graphics/SVG/1.1/DTD/svg11.dtd">


<svg xmlns="http://www.w3.org/2000/svg" version="1.1" width="800px" height="800px" style="shape-rendering:geometricPrecision; text-rendering:geometricPrecision; image-rendering:optimizeQuality; fill-rule:evenodd; clip-rule:evenodd" xmlns:xlink="http://www.w3.org/1999/xlink">

<g><path style="opacity:1" fill="#0a0a0a" d="M 128.5,165.5 C 309.167,165.333 489.834,165.5 670.5,166C 685.342,168.508 694.842,177.008 699,191.5C 701.953,208.421 696.12,221.254 681.5,230C 677.943,231.408 674.276,232.408 670.5,233C 489.833,233.667 309.167,233.667 128.5,233C 104.688,226.898 95.5209,211.731 101,187.5C 106.254,175.06 115.421,167.727 128.5,165.5 Z"/></g>
<g><path style="opacity:1" fill="#0a0a0a" d="M 128.5,365.5 C 309.167,365.333 489.834,365.5 670.5,366C 685.342,368.508 694.842,377.008 699,391.5C 701.953,408.421 696.12,421.254 681.5,430C 677.943,431.408 674.276,432.408 670.5,433C 489.833,433.667 309.167,433.667 128.5,433C 104.688,426.898 95.5209,411.731 101,387.5C 106.254,375.06 115.421,367.727 128.5,365.5 Z"/></g>
<g><path style="opacity:1" fill="#0a0a0a" d="M 128.5,565.5 C 309.167,565.333 489.834,565.5 670.5,566C 685.342,568.508 694.842,577.008 699,591.5C 701.953,608.421 696.12,621.254 681.5,630C 677.943,631.408 674.276,632.408 670.5,633C 489.833,633.667 309.167,633.667 128.5,633C 104.688,626.898 95.5209,611.731 101,587.5C 106.254,575.06 115.421,567.727 128.5,565.5 Z"/></g>
</svg>
